<svg width="270" height="58" viewBox="0 0 270 58" fill="none" xmlns="http://www.w3.org/2000/svg">
<g clip-path="url(#clip0_281_1671)">
<path d="M160.745 25.3783C161.813 20.379 162.322 19.1282 163.411 18.1084C164.237 17.3197 165.205 16.9492 166.611 16.9492C167.871 16.9492 168.868 17.3197 169.473 18.0367C169.931 18.5904 170.198 19.4947 170.198 20.3511C170.198 20.6977 170.198 21.0005 170.128 21.4147H167.558C167.629 21.0682 167.629 20.7893 167.629 20.4866C167.629 19.7456 167.362 19.1441 166.415 19.1441C165.881 19.1441 165.493 19.3075 165.18 19.6301C164.5 20.3033 164.187 21.2952 163.311 25.3704C162.873 27.4776 162.585 29.1906 162.585 30.1864C162.585 31.0907 162.948 31.6006 163.82 31.6006C164.425 31.6006 164.838 31.3695 165.155 30.9991C165.543 30.5609 165.785 30.0271 165.956 29.3101H168.551C168.188 30.9752 167.654 32.0189 166.661 32.8514C165.91 33.4768 165.038 33.7995 163.582 33.7995C162.08 33.7995 161.158 33.3135 160.599 32.4809C160.161 31.8077 160.02 31.2062 160.02 30.2103C160.02 29.2145 160.282 27.625 160.745 25.3783Z" fill="#0079C1"/>
<path d="M174.446 19.3356H171.705L172.164 17.1367H180.215L179.756 19.3356H177.015L174.033 33.6205H171.463L174.446 19.3356Z" fill="#0079C1"/>
<path d="M182.158 17.1367H186.063C187.423 17.1367 188.22 17.3917 188.85 17.9932C189.434 18.5469 189.651 19.3595 189.651 20.2399C189.651 20.8175 189.601 21.419 189.455 22.1599C188.608 26.2112 186.981 27.1831 184.365 27.1831H182.622L181.287 33.6205H178.717L182.158 17.1367ZM184.486 24.9842C185.821 24.9842 186.451 24.2433 186.885 22.1599C186.981 21.6978 187.081 21.1402 187.081 20.7259C187.081 19.8017 186.693 19.3356 185.604 19.3356H184.269L183.08 24.9842H184.486Z" fill="#0079C1"/>
<path d="M192.805 17.1367H199.692L199.234 19.3356H194.916L193.898 24.2194H197.607L197.148 26.3944H193.439L192.396 31.4176H196.71L196.251 33.6165H189.363L192.805 17.1367Z" fill="#0079C1"/>
<path d="M202.016 17.1367H204.344L205.699 25.6575L210.647 17.1367H212.975L209.533 33.6205H206.963L209.095 23.3869L205.508 29.9397H204.077L203.301 23.343L201.144 33.6205H198.574L202.016 17.1367Z" fill="#0079C1"/>
<path d="M215.813 17.1367H218.383L216.297 27.0477L222.167 17.1367H224.348L220.907 33.6205H218.337L220.398 23.7334L214.624 33.6205H212.367L215.813 17.1367Z" fill="#0079C1"/>
<path d="M227.188 17.1367H229.516L230.871 25.6575L235.819 17.1367H238.147L234.705 33.6205H232.135L234.267 23.3869L230.679 29.9397H229.249L228.473 23.343L226.316 33.6205H223.746L227.188 17.1367Z" fill="#0079C1"/>
<path d="M238.827 25.3783C239.895 20.379 240.404 19.1282 241.493 18.1084C242.319 17.3197 243.287 16.9492 244.693 16.9492C245.953 16.9492 246.95 17.3197 247.555 18.0367C248.014 18.5904 248.281 19.4947 248.281 20.3511C248.281 20.6977 248.281 21.0005 248.21 21.4147H245.64C245.711 21.0682 245.711 20.7893 245.711 20.4866C245.711 19.7456 245.444 19.1441 244.497 19.1441C243.963 19.1441 243.575 19.3075 243.262 19.6301C242.582 20.3033 242.269 21.2952 241.393 25.3704C240.955 27.4776 240.667 29.1906 240.667 30.1864C240.667 31.0907 241.03 31.6006 241.902 31.6006C242.507 31.6006 242.92 31.3695 243.237 30.9991C243.625 30.5609 243.867 30.0271 244.038 29.3101H246.633C246.27 30.9752 245.736 32.0189 244.743 32.8514C243.992 33.4768 243.12 33.7995 241.664 33.7995C240.162 33.7995 239.24 33.3135 238.681 32.4809C238.243 31.8077 238.102 31.2062 238.102 30.2103C238.102 29.2145 238.364 27.625 238.827 25.3783Z" fill="#0079C1"/>
<path d="M251.189 26.2112C250.221 25.6336 249.929 24.6816 249.929 23.5941C249.929 23.1758 250 22.6699 250.146 21.9967C250.997 17.9933 252.303 17.1328 255.336 17.1328H259.483L256.016 33.6206H253.446L254.902 26.7689H253.542L249.859 33.6206H247.047L251.189 26.2112ZM252.549 23.2714C252.549 24.2673 252.962 24.6617 254.005 24.6617H255.34L256.454 19.3357H255.073C253.738 19.3357 253.133 19.985 252.72 21.9967C252.62 22.4389 252.549 22.877 252.549 23.2714Z" fill="#0079C1"/>
<path d="M158.762 40.209H161.332L157.89 56.6928H155.32L158.762 40.209ZM159.705 48.2198L164.99 40.209H167.852L162.375 48.1959L164.677 56.6928H161.866L159.705 48.2198Z" fill="#0079C1"/>
<path d="M174.037 40.209H181.651L181.192 42.4079H176.148L175.276 46.6224H176.632C177.992 46.6224 178.789 46.9013 179.419 47.5028C179.999 48.0565 180.22 48.8453 180.22 49.7495C180.22 50.3271 180.149 51.0681 180.024 51.6696C179.177 55.7208 177.55 56.6928 174.934 56.6928H170.596L174.037 40.209ZM175.055 54.4939C176.39 54.4939 176.995 53.7769 177.454 51.6696C177.55 51.2314 177.625 50.6498 177.625 50.2116C177.625 49.2874 177.262 48.8214 176.169 48.8214H174.813L173.624 54.4939H175.055Z" fill="#0079C1"/>
<path d="M185.236 41.1568C186.082 40.368 187.054 40.0215 188.435 40.0215C189.987 40.0215 190.934 40.5314 191.464 41.3878C191.902 42.0371 192.044 42.6148 192.044 43.5867C192.044 44.6065 191.777 46.2039 191.293 48.4466C190.225 53.4698 189.766 54.6967 188.627 55.7404C187.801 56.5292 186.833 56.8757 185.453 56.8757C183.876 56.8757 182.933 56.3658 182.399 55.5094C181.986 54.8601 181.84 54.2825 181.84 53.3105C181.84 52.2907 182.107 50.6933 182.566 48.4506C183.663 43.4274 184.122 42.2005 185.236 41.1568ZM189.478 43.6584C189.478 42.8259 189.161 42.2244 188.193 42.2244C187.709 42.2244 187.321 42.3877 186.979 42.7104C186.349 43.3119 185.987 44.3994 185.135 48.4506C184.697 50.534 184.385 52.2708 184.385 53.2428C184.385 54.0753 184.702 54.6768 185.669 54.6768C186.153 54.6768 186.541 54.5135 186.883 54.1908C187.513 53.5893 187.876 52.5018 188.727 48.4506C189.165 46.3672 189.478 44.6304 189.478 43.6584Z" fill="#0079C1"/>
<path d="M190.912 54.4939H191.154C192.56 54.4939 193.482 53.6613 194.379 49.3551L196.319 40.209H204.124L200.682 56.6928H198.087L201.07 42.4079H198.329L196.853 49.4468C195.543 55.7447 194.208 56.6928 191.229 56.6928H190.453L190.912 54.4939Z" fill="#0079C1"/>
<path d="M206.959 40.209H209.529L208.194 46.6224H209.55C210.91 46.6224 211.707 46.9013 212.337 47.5028C212.917 48.0565 213.138 48.8453 213.138 49.7495C213.138 50.3271 213.067 51.0681 212.942 51.6696C212.095 55.7208 210.468 56.6928 207.852 56.6928H203.514L206.959 40.209ZM207.977 54.4939C209.312 54.4939 209.917 53.7769 210.376 51.6696C210.472 51.2314 210.547 50.6498 210.547 50.2116C210.547 49.2874 210.184 48.8214 209.091 48.8214H207.735L206.546 54.4939H207.977Z" fill="#0079C1"/>
<path d="M217.678 40.209H220.248L217.265 54.4939H220.102L223.084 40.209H225.654L222.671 54.4939H225.508L228.491 40.209H231.061L227.619 56.6928H214.236L217.678 40.209Z" fill="#0079C1"/>
<path d="M233.926 40.209H240.814L240.355 42.4079H236.037L235.019 47.2917H238.728L238.269 49.4667H234.56L233.517 54.4899H237.831L237.372 56.6888H230.484L233.926 40.209Z" fill="#0079C1"/>
<path d="M243.137 40.209H245.465L246.821 48.7297L251.768 40.209H254.096L250.654 56.6928H248.085L250.216 46.4591L246.629 53.012H245.198L244.422 46.4153L242.265 56.6928H239.695L243.137 40.209Z" fill="#0079C1"/>
<path d="M253.586 54.4939C255.017 54.4939 255.647 54.1234 256.227 52.8049L256.907 51.323L255.672 40.209H258.292L258.751 47.9888L262.46 40.209H265.2L258.217 53.5219C256.882 56.0674 256.327 56.6928 253.148 56.6928L253.586 54.4939Z" fill="#0079C1"/>
<path d="M264.375 53.8685H267.162L266.582 56.6928H263.795L264.375 53.8685ZM267.237 40.209H270.003L267.433 52.1078H265.009L267.237 40.209Z" fill="#0079C1"/>
<path fill-rule="evenodd" clip-rule="evenodd" d="M101.798 34.4734C102.277 34.4734 102.678 34.1228 102.678 33.6846V33.6607V20.3996V20.3398L102.669 20.2761C102.628 19.8897 102.248 19.583 101.793 19.583C101.339 19.583 100.972 19.8937 100.917 20.2761V20.3398V20.3996V33.6607L100.909 33.6846C100.909 34.1188 101.309 34.4734 101.798 34.4734ZM103.441 17.1371C106.228 17.1371 106.403 19.2882 106.403 20.6705V33.3819C106.403 34.7681 106.228 36.9192 103.441 36.9192H100.15C97.3672 36.9192 97.2003 34.7681 97.2003 33.3819V20.6705C97.2003 19.2882 97.3672 17.1371 100.15 17.1371H103.441ZM41.4249 17.1371H49.0173V19.5909H45.4047V36.9152H41.4249V17.1371ZM51.6747 17.1371H57.9281L60.0056 36.9192H56.1134L55.7463 31.661H53.869L53.4936 36.9192H49.6097L51.6747 17.1371ZM55.5961 29.482L54.9119 19.5909H54.6908L54.0025 29.482H55.5961ZM65.7041 29.9919V33.7125C65.7041 34.2264 66.0962 34.3658 66.3257 34.3658C66.6928 34.3658 66.9473 34.0551 66.9473 33.7125V29.1115C66.9473 28.4941 66.8388 27.8129 65.3578 27.8129H63.7392V25.6379H65.4121C66.5468 25.6379 66.9473 25.375 66.9473 24.172V20.2363C66.9473 19.8977 66.6928 19.5869 66.3257 19.5869C66.0962 19.5869 65.7041 19.7304 65.7041 20.2363V23.4589H61.716V20.6625C61.716 19.2802 61.8912 17.1291 64.6737 17.1291H67.9735C70.756 17.1291 70.9312 19.2802 70.9312 20.6625V23.8294C70.9312 25.9725 69.4211 26.5621 68.2238 26.5063V26.7055C70.8937 26.6457 70.9312 28.6813 70.9312 29.3904V33.3699C70.9312 34.7562 70.7602 36.9073 67.9735 36.9073H64.6737C61.8912 36.9073 61.716 34.7562 61.716 33.3699V29.9799H65.7041V29.9919ZM73.5469 17.1371H82.7538V36.9192H79.041V19.5909H77.2555V36.9152H73.5469V17.1371ZM85.6364 17.1371H91.8856C94.6723 17.1371 95.1145 19.2882 95.1145 20.6705V26.6537C95.1145 28.044 94.6723 30.1911 91.8856 30.1911H89.612V36.9152H85.6364V17.1371ZM90.6591 28.0121C91.093 28.0121 91.4017 27.6496 91.4017 27.0242V20.5788C91.4017 19.9574 91.093 19.5909 90.6591 19.5909H89.612V28.0121H90.6591ZM119.098 17.1371H124.275V36.9192H120.291V24.5106H120.153L118.1 36.9152H114.917L112.873 24.5106H112.736V36.9152H108.748V17.1371H113.916L116.499 31.0356L119.098 17.1371ZM32.9397 19.1488C32.9772 17.1451 32.777 13.7391 31.7507 10.1819C30.7203 6.62857 28.7304 3.24657 28.4342 2.80838C28.1422 3.24657 26.5611 5.99121 25.1678 10.2894C24.8007 11.5761 24.1374 14.3725 24.0248 17.0972C23.8913 20.4036 24.3585 23.678 24.5504 24.6062C24.5504 23.5147 24.5712 19.8698 25.2804 16.8622C25.9896 13.8467 27.3371 10.381 28.4342 8.61635C29.6232 10.4727 31.1125 14.4761 31.6339 16.8821C32.1637 19.2842 32.439 22.3595 32.3264 24.5345C32.6393 23.2677 32.8896 21.1525 32.9397 19.1488ZM28.4593 34.4972C29.1017 33.3619 30.1989 30.8762 30.1029 27.7173C29.9694 24.4946 28.8264 22.1324 28.4843 21.5668C28.0921 22.1324 26.7697 24.8412 26.7906 28.0041C26.8824 31.2706 27.8418 33.3858 28.4593 34.4972ZM33.3026 10.2297C34.5541 15.4839 34.5332 18.7146 33.9867 22.3993C33.0022 29.0319 29.8484 34.1029 28.4801 35.8038C27.5415 34.6486 26.1064 32.2944 25.1469 30.0955C25.1469 30.0955 23.3364 25.9128 22.8567 21.8337C22.3769 17.7545 22.5855 13.6077 23.9789 8.94299C25.2637 4.74835 27.7709 0.979945 28.4593 0C28.8889 0.693132 32.0469 4.97143 33.3026 10.2297ZM35.8849 36.9152V50.4472C32.1053 54.2874 26.7238 56.6934 20.75 56.6934C9.29452 56.6934 0 47.858 0 36.963C0 26.0721 9.29452 17.2367 20.7458 17.2367V32.0713C17.7672 32.0713 14.7845 33.1508 12.5109 35.3139C11.9686 35.8277 11.493 36.3775 11.08 36.963C8.0305 41.2692 8.5019 47.1688 12.5109 50.981C14.7845 53.1361 17.7672 54.2236 20.7458 54.2236C23.7119 54.2236 26.6821 53.1521 28.9515 51.0049C28.964 50.993 28.9724 50.985 28.9891 50.9771V50.9691L29.0183 50.9492C31.296 48.7861 31.296 45.2647 29.0183 43.1096C26.7405 40.9426 23.0527 40.9426 20.775 43.1096C20.7625 43.1176 20.7541 43.1216 20.7458 43.1295V36.9152H35.8849ZM120.553 51.1364C120.553 49.4195 119.79 48.9574 117.729 48.9574H117.375V45.6431H115.272V54.2316H117.375C119.657 54.2316 120.553 53.897 120.553 52.0168V51.1364ZM103.024 45.6391H97.7343V47.2684H99.4405V54.2435H101.439V47.2684H103.024V45.6391ZM86.8712 48.4874C86.8712 46.7346 85.9785 46.2885 83.8718 46.2885V45.6431H81.8277V46.2885C79.721 46.2885 78.8199 46.7346 78.8199 48.4874V51.1722C78.8199 52.913 79.7585 53.3831 81.8277 53.3831V54.2316H83.8718V53.3831C85.9409 53.3831 86.8712 52.913 86.8712 51.1722V48.4874ZM67.8358 45.6391H62.7964V54.2396H67.8358V52.6103H64.9615V50.5867H67.5313V48.9574H64.9615V47.2644H67.8358V45.6391ZM50.419 45.6431H48.3165V48.9574H47.236V45.6431H45.1335V54.2316H47.236V50.4711H48.3165V54.2316H50.419V45.6431ZM124.275 56.6934H41.4249V43.504H124.275V56.6934ZM80.8598 48.4316C80.8598 47.9297 81.0309 47.8062 81.4939 47.8062H81.8318V51.8056H81.4939C81.035 51.8056 80.8598 51.6901 80.8598 51.1842V48.4316ZM117.842 50.4751C118.309 50.4751 118.455 50.5867 118.455 51.0766V52.1124C118.455 52.5984 118.313 52.7139 117.842 52.7139H117.375V50.4711H117.842V50.4751ZM84.2014 47.8022C84.6686 47.8022 84.8354 47.9018 84.8354 48.4117V51.1722C84.8354 51.6742 84.6686 51.8016 84.2014 51.8016H83.876V47.8022H84.2014Z" fill="#0079C1"/>
<path fill-rule="evenodd" clip-rule="evenodd" d="M119.1 17.1367H124.277V36.9189H120.293V24.5102H120.155L118.103 36.9149H114.92L112.876 24.5102H112.738V36.9149H108.75V17.1367H113.919L116.501 31.0352L119.1 17.1367Z" fill="#0079C1"/>
<path d="M139.797 15.834L144.202 36.9187L139.797 57.9995H141.833L146.238 36.9187L141.833 15.834H139.797Z" fill="#0079C1"/>
</g>
<defs>
<clipPath id="clip0_281_1671">
<rect width="270" height="58" fill="white"/>
</clipPath>
</defs>
</svg>
